<?xml version="1.0" standalone="no"?><!DOCTYPE svg PUBLIC "-//W3C//DTD SVG 1.1//EN" "http://www.w3.org/Graphics/SVG/1.1/DTD/svg11.dtd"><svg t="1607998937636" class="icon" viewBox="0 0 1024 1024" version="1.1" xmlns="http://www.w3.org/2000/svg" p-id="4681" xmlns:xlink="http://www.w3.org/1999/xlink" width="200" height="200"><defs><style type="text/css"></style></defs><path d="M512 512m-512 0a512 512 0 1 0 1024 0 512 512 0 1 0-1024 0Z" fill="#88C5CC" p-id="4682"></path><path d="M248 400h528v464H248z" fill="#406A80" p-id="4683"></path><path d="M216 432h128v400H216z" fill="#E6E6E6" p-id="4684"></path><path d="M232 432h16v400h-16zM272 432h16v400h-16zM312 432h16v400h-16z" fill="#CCCCCC" p-id="4685"></path><path d="M680 432h128v400H680zM80 1024v-64c0-8.8 7.2-16 16-16h832c8.8 0 16 7.2 16 16v64H80zM128 944v-64c0-8.8 7.2-16 16-16h736c8.8 0 16 7.2 16 16v64H128z" fill="#E6E6E6" p-id="4686"></path><path d="M867.312 340.688l-352-240c-3.12-3.12-7.216-4.688-11.312-4.688s-8.192 1.568-11.312 4.688l-352 240A16.208 16.208 0 0 0 136 352c-0.032 4.136 1.528 8.16 4.688 11.312 3.128 3.128 7.216 4.688 11.312 4.688h704c4.096 0 8.184-1.56 11.312-4.688 3.16-3.16 4.72-7.176 4.688-11.312a16.208 16.208 0 0 0-4.688-11.312z" fill="#F5F5F5" p-id="4687"></path><path d="M204.368 336L504 131.704 803.632 336zM904 384c0 8.8-7.2 16-16 16H120c-8.8 0-16-7.2-16-16s7.2-16 16-16h768c8.8 0 16 7.2 16 16z" fill="#CCCCCC" p-id="4688"></path><path d="M448 432h128v400H448z" fill="#E6E6E6" p-id="4689"></path><path d="M464 432h16v400h-16zM504 432h16v400h-16zM544 432h16v400h-16z" fill="#CCCCCC" p-id="4690"></path><path d="M696 432h16v400h-16zM736 432h16v400h-16zM776 432h16v400h-16z" fill="#CCCCCC" p-id="4691"></path><path d="M360 848c0 8.8-7.2 16-16 16H216c-8.8 0-16-7.2-16-16s7.2-16 16-16h128c8.8 0 16 7.2 16 16zM360 416c0 8.8-7.2 16-16 16H216c-8.8 0-16-7.2-16-16s7.2-16 16-16h128c8.8 0 16 7.2 16 16zM592 848c0 8.8-7.2 16-16 16H448c-8.8 0-16-7.2-16-16s7.2-16 16-16h128c8.8 0 16 7.2 16 16zM592 416c0 8.8-7.2 16-16 16H448c-8.8 0-16-7.2-16-16s7.2-16 16-16h128c8.8 0 16 7.2 16 16zM824 848c0 8.8-7.2 16-16 16H680c-8.8 0-16-7.2-16-16s7.2-16 16-16h128c8.8 0 16 7.2 16 16zM824 416c0 8.8-7.2 16-16 16H680c-8.8 0-16-7.2-16-16s7.2-16 16-16h128c8.8 0 16 7.2 16 16z" fill="#F5F5F5" p-id="4692"></path><path d="M128 936h768v8H128z" fill="#CCCCCC" p-id="4693"></path><path d="M504 280c-13.232 0-24-10.768-24-24a8 8 0 0 1 16 0c0 4.408 3.592 8 8 8s8-3.592 8-8-3.592-8-8-8c-13.232 0-24-10.768-24-24s10.768-24 24-24 24 10.768 24 24a8 8 0 0 1-16 0c0-4.408-3.592-8-8-8s-8 3.592-8 8 3.592 8 8 8c13.232 0 24 10.768 24 24s-10.768 24-24 24z" fill="#2179A6" p-id="4694"></path><path d="M504 216a8 8 0 0 1-8-8v-16a8 8 0 0 1 16 0v16a8 8 0 0 1-8 8zM504 296a8 8 0 0 1-8-8v-16a8 8 0 0 1 16 0v16a8 8 0 0 1-8 8z" fill="#2179A6" p-id="4695"></path></svg>